<svg width="50" height="51" viewBox="0 0 72 71" fill="none" xmlns="http://www.w3.org/2000/svg">
<g clip-path="url(#clip0_411_495)">
<path d="M35.875 70.5256C55.2913 70.5256 71.0312 54.7856 71.0312 35.3693C71.0312 15.9531 55.2913 0.213074 35.875 0.213074C16.4587 0.213074 0.71875 15.9531 0.71875 35.3693C0.71875 54.7856 16.4587 70.5256 35.875 70.5256Z" fill="#F0F0F0"/>
<path d="M35.875 0.213074C16.4589 0.213074 0.71875 15.9532 0.71875 35.3693C0.71875 39.6696 1.49232 43.7891 2.90544 47.5975H68.8447C70.2578 43.7891 71.0312 39.6696 71.0312 35.3693C71.0312 15.9532 55.2911 0.213074 35.875 0.213074Z" fill="#0052B4"/>
<path d="M35.8748 0.213074C20.7589 0.213074 7.8726 9.7536 2.90527 23.1411H68.8445C63.8771 9.7536 50.9908 0.213074 35.8748 0.213074V0.213074Z" fill="#D80027"/>
<path d="M9.80957 20.084V37.6218C9.80957 47.5979 22.8422 50.6547 22.8422 50.6547C22.8422 50.6547 35.8748 47.5979 35.8748 37.6218V20.084H9.80957Z" fill="#D80027"/>
<path d="M15.1992 23.1411H30.4846V17.0269L27.4276 18.5554L22.842 13.9698L18.2563 18.5554L15.1992 17.0269V23.1411Z" fill="#FFDA44"/>
<path d="M32.8177 40.0637L22.8823 30.1282L12.9468 40.0637L16.1893 43.3061L22.8823 36.6131L29.5753 43.3061L32.8177 40.0637Z" fill="#FFDA44"/>
<path d="M32.8177 30.7838H28.1821C28.4427 30.3339 28.5943 29.8129 28.5943 29.2556C28.5943 27.567 27.2256 26.1985 25.5372 26.1985C24.3706 26.1985 23.3576 26.8519 22.8422 27.8125C22.3268 26.852 21.3137 26.1985 20.1471 26.1985C18.4588 26.1985 17.09 27.567 17.09 29.2556C17.09 29.8129 17.2416 30.334 17.5023 30.7838H12.9468C12.9468 32.4722 14.4174 33.8408 16.1056 33.8408H16.0039C16.0039 35.5293 17.3725 36.8979 19.0609 36.8979C19.0609 38.3929 20.1346 39.6349 21.5525 39.9008L19.1438 45.3393C20.2981 45.8085 21.5596 46.0692 22.8824 46.0692C24.2052 46.0692 25.4667 45.8085 26.621 45.3393L24.2123 39.9008C25.6302 39.6352 26.7039 38.393 26.7039 36.8979C28.3923 36.8979 29.7609 35.5293 29.7609 33.8408H29.6592C31.3472 33.8408 32.8177 32.4721 32.8177 30.7838V30.7838Z" fill="#F0F0F0"/>
</g>
<defs>
<clipPath id="clip0_411_495">
<rect width="70.3125" height="70.3125" fill="white" transform="translate(0.71875 0.213074)"/>
</clipPath>
</defs>
</svg>
